<svg width="59" height="48" viewBox="0 0 59 48" fill="none" xmlns="http://www.w3.org/2000/svg">
<path d="M59 5.68197C56.8294 6.6459 54.4962 7.29709 52.048 7.59004C54.547 6.0904 56.4665 3.71573 57.3701 0.885969C55.0311 2.27486 52.4407 3.28308 49.6833 3.82647C47.4755 1.47129 44.3296 0 40.848 0C34.1633 0 28.7433 5.42534 28.7433 12.1173C28.7433 13.0671 28.8504 13.992 29.0569 14.8789C18.9968 14.3736 10.0777 9.5492 4.10749 2.21786C3.06555 4.0075 2.46846 6.08893 2.46846 8.30975C2.46846 12.5139 4.60545 16.2229 7.8534 18.3958C5.86923 18.3329 4.00276 17.7878 2.37082 16.8803C2.36944 16.9308 2.36944 16.9815 2.36944 17.0326C2.36944 22.9036 6.54193 27.8009 12.0794 28.9149C11.0637 29.1919 9.99432 29.3398 8.89043 29.3398C8.11045 29.3398 7.35231 29.2637 6.61303 29.1225C8.15352 33.9365 12.6237 37.4399 17.9207 37.5374C13.778 40.7877 8.55885 42.725 2.88747 42.725C1.91042 42.725 0.946953 42.6674 0 42.5555C5.35691 45.9939 11.7195 48 18.5552 48C40.8198 48 52.9954 29.5356 52.9954 13.5222C52.9954 12.9968 52.9836 12.4744 52.9603 11.9543C55.325 10.2462 57.3772 8.11217 59 5.68197Z" fill="white"/>
</svg>
